# xmcd
#
# Track frame offsets:
# 150
# 11517
# 25687
# 40618
# 50913
# 62170
# 76856
# 91263
# 113691
# 123751
# 134816
# 149964
# 168407
# 174108
# 186881
# 191765
# 213374
# 226208
# 239436
# 261341
# 279935
#
# Disc length: 4120 seconds
#
# Revision: 0
# Processed by: cddbd v1.5.2PL0 Copyright (c) Steve Scherf et al.
# Submitted via: Audion 3.0.2 (http://www.panic.com/audion/)
#
DISCID=27101615
DTITLE=inconnu - pulp fiction
DYEAR=1900
DGENRE=
TTITLE0=Dick Dale-Mirsilou
TTITLE1=Kool and The Gang- Jungle Boogie
TTITLE2=Al Green-Let's Stay together
TTITLE3=Rick Nelson-Lonesome Town
TTITLE4=Dusty Springfield- Son Of A Preacher Man
TTITLE5=Chuck berry- You Never Can Tell
TTITLE6=Urge Overkill-Girl, You'll Be a WomanSoon
TTITLE7=Maria McKee-If Love Is a red Dress
TTITLE8=Comanche Revels-Bring Out the Gimp
TTITLE9=Statler brothers-Flowers on The Wall
TTITLE10=Lively Ones-Surf rider
TTITLE11=Shivaree-Goodnight Moon
TTITLE12=Ennio Morricone-Il Tramonto
TTITLE13=Charlie feathers-Can't Hardly Stand It
TTITLE14=Alan reeves-The chase
TTITLE15=Ennio Morricone-L'arena
TTITLE16=Johnny Cash-a Satisfied Man
TTITLE17=Ennio Morricone-A Silhouette of Doom
TTITLE18=Malcom MacLaren-About Her
TTITLE19=Chingon-Malaguena Salerosa
TTITLE20=Meiko Kaji-Urami Bushi
EXTD=
EXTT0=
EXTT1=
EXTT2=
EXTT3=
EXTT4=
EXTT5=
EXTT6=
EXTT7=
EXTT8=
EXTT9=
EXTT10=
EXTT11=
EXTT12=
EXTT13=
EXTT14=
EXTT15=
EXTT16=
EXTT17=
EXTT18=
EXTT19=
EXTT20=
PLAYORDER=
